<svg width="1600" height="900" viewBox="0 0 1600 900" fill="none" xmlns="http://www.w3.org/2000/svg">
  <rect width="1600" height="900" rx="28" fill="#071320"/>
  <rect x="24" y="24" width="1552" height="852" rx="24" fill="url(#bg)"/>
  <rect x="40" y="40" width="300" height="820" rx="28" fill="#0C1222" stroke="#E5E7EB" stroke-opacity="0.18"/>
  <rect x="58" y="58" width="264" height="56" rx="18" fill="#11192B" stroke="#F8FAFC" stroke-opacity="0.7"/>
  <rect x="72" y="70" width="184" height="32" rx="12" fill="#1A2135"/>
  <text x="88" y="92" fill="#7C8AA5" font-family="Segoe UI, Arial, sans-serif" font-size="24">Search</text>
  <rect x="270" y="60" width="46" height="48" rx="16" fill="#19D3A7"/>
  <circle cx="292" cy="84" r="9" stroke="#04131A" stroke-width="5"/>
  <path d="M298 90L306 98" stroke="#04131A" stroke-width="5" stroke-linecap="round"/>

  <rect x="58" y="132" width="264" height="680" rx="24" fill="#0D1427" stroke="#F8FAFC" stroke-opacity="0.75"/>
  <rect x="70" y="144" width="240" height="62" rx="16" fill="#1A2135" stroke="#F8FAFC" stroke-opacity="0.6"/>
  <text x="92" y="176" fill="#F8FAFC" font-family="Segoe UI, Arial, sans-serif" font-size="22" font-weight="700">Messages</text>
  <text x="92" y="196" fill="#8A96AE" font-family="Segoe UI, Arial, sans-serif" font-size="15">6 contacts</text>
  <text x="240" y="184" fill="#7AF0C7" font-family="Segoe UI, Arial, sans-serif" font-size="18">Active</text>

  <g font-family="Segoe UI, Arial, sans-serif">
    <g transform="translate(0,0)">
      <circle cx="118" cy="266" r="24" fill="#F8FAFC"/>
      <circle cx="118" cy="258" r="10" fill="#60C5FA"/>
      <path d="M103 281C107 269 116 267 118 267C121 267 130 269 133 281" fill="#D1D5DB"/>
      <text x="160" y="259" fill="#F8FAFC" font-size="18" font-weight="700">shivanshu</text>
      <text x="160" y="282" fill="#94A3B8" font-size="16">shivanshu...</text>
      <rect x="266" y="248" width="62" height="30" rx="15" fill="#18213A"/>
      <text x="281" y="268" fill="#6F7B94" font-size="14" letter-spacing="3">AWAY</text>
    </g>
    <g transform="translate(0,92)">
      <circle cx="118" cy="266" r="24" fill="#F8FAFC"/>
      <circle cx="118" cy="258" r="10" fill="#60C5FA"/>
      <path d="M103 281C107 269 116 267 118 267C121 267 130 269 133 281" fill="#D1D5DB"/>
      <text x="160" y="259" fill="#F8FAFC" font-size="18" font-weight="700">rahul</text>
      <text x="160" y="282" fill="#94A3B8" font-size="16">rahul@gmail...</text>
      <rect x="266" y="248" width="62" height="30" rx="15" fill="#18213A"/>
      <text x="281" y="268" fill="#6F7B94" font-size="14" letter-spacing="3">AWAY</text>
    </g>
    <g transform="translate(0,184)">
      <circle cx="118" cy="266" r="24" fill="#F8FAFC"/>
      <circle cx="118" cy="258" r="10" fill="#60C5FA"/>
      <path d="M103 281C107 269 116 267 118 267C121 267 130 269 133 281" fill="#D1D5DB"/>
      <text x="160" y="259" fill="#F8FAFC" font-size="18" font-weight="700">satyam</text>
      <text x="160" y="282" fill="#94A3B8" font-size="16">satyam@g...</text>
      <rect x="266" y="248" width="62" height="30" rx="15" fill="#18213A"/>
      <text x="281" y="268" fill="#6F7B94" font-size="14" letter-spacing="3">AWAY</text>
    </g>
    <g transform="translate(0,276)">
      <circle cx="118" cy="266" r="24" fill="#F8FAFC"/>
      <circle cx="118" cy="258" r="10" fill="#60C5FA"/>
      <path d="M103 281C107 269 116 267 118 267C121 267 130 269 133 281" fill="#D1D5DB"/>
      <text x="160" y="259" fill="#F8FAFC" font-size="18" font-weight="700">abhinav</text>
      <text x="160" y="282" fill="#94A3B8" font-size="16">abhinav@g...</text>
      <rect x="266" y="248" width="62" height="30" rx="15" fill="#18213A"/>
      <text x="281" y="268" fill="#6F7B94" font-size="14" letter-spacing="3">AWAY</text>
    </g>
    <g transform="translate(0,368)">
      <circle cx="118" cy="266" r="24" fill="#F8FAFC"/>
      <circle cx="118" cy="258" r="10" fill="#60C5FA"/>
      <path d="M103 281C107 269 116 267 118 267C121 267 130 269 133 281" fill="#D1D5DB"/>
      <text x="160" y="259" fill="#F8FAFC" font-size="18" font-weight="700">raghav</text>
      <text x="160" y="282" fill="#94A3B8" font-size="16">raghav@g...</text>
      <rect x="266" y="248" width="62" height="30" rx="15" fill="#18213A"/>
      <text x="281" y="268" fill="#6F7B94" font-size="14" letter-spacing="3">AWAY</text>
    </g>
    <g transform="translate(0,460)">
      <circle cx="118" cy="266" r="24" fill="#F8FAFC"/>
      <circle cx="118" cy="258" r="10" fill="#60C5FA"/>
      <path d="M103 281C107 269 116 267 118 267C121 267 130 269 133 281" fill="#D1D5DB"/>
      <text x="160" y="259" fill="#F8FAFC" font-size="18" font-weight="700">sakti</text>
      <text x="160" y="282" fill="#94A3B8" font-size="16">sakti@gmai...</text>
      <rect x="266" y="248" width="62" height="30" rx="15" fill="#18213A"/>
      <text x="281" y="268" fill="#6F7B94" font-size="14" letter-spacing="3">AWAY</text>
    </g>
  </g>

  <rect x="368" y="40" width="1192" height="820" rx="30" fill="#071624" stroke="#E5E7EB" stroke-opacity="0.08"/>
  <rect x="675" y="330" width="600" height="256" rx="30" fill="url(#card)" stroke="#E5E7EB" stroke-opacity="0.09"/>
  <text x="974" y="392" text-anchor="middle" fill="#65D7B7" font-family="Segoe UI, Arial, sans-serif" font-size="18" font-weight="700" letter-spacing="8">INBOX READY</text>
  <text x="974" y="456" text-anchor="middle" fill="#E5E7EB" font-family="Segoe UI, Arial, sans-serif" font-size="36" font-weight="700">Welcome vivek</text>
  <text x="974" y="510" text-anchor="middle" fill="#94A3B8" font-family="Segoe UI, Arial, sans-serif" font-size="24">No chat selected yet. Pick a contact from the sidebar to start a</text>
  <text x="974" y="560" text-anchor="middle" fill="#94A3B8" font-family="Segoe UI, Arial, sans-serif" font-size="24">conversation.</text>

  <defs>
    <linearGradient id="bg" x1="0" y1="0" x2="1600" y2="900" gradientUnits="userSpaceOnUse">
      <stop stop-color="#05101B"/>
      <stop offset="1" stop-color="#0D2235"/>
    </linearGradient>
    <linearGradient id="card" x1="675" y1="330" x2="1275" y2="586" gradientUnits="userSpaceOnUse">
      <stop stop-color="#172536"/>
      <stop offset="1" stop-color="#1B2433"/>
    </linearGradient>
  </defs>
</svg>
